<svg version="1.1" id="Layer_1" xmlns="http://www.w3.org/2000/svg" xmlns:xlink="http://www.w3.org/1999/xlink" x="0px" y="0px" viewBox="0 0 30 30" style="enable-background:new 0 0 30 30;" xml:space="preserve">
<g>
	<path style="fill:#DBB065;" d="M1.5,26.5v-23h8.293l3,3H28.5V26c0,0.276-0.224,0.5-0.5,0.5H1.5z"></path>
	<g>
		<path style="fill:#967A44;" d="M9.586,4l2.707,2.707L12.586,7H13h15v19H2V4H9.586 M10,3H1v24h27c0.552,0,1-0.448,1-1V6H13L10,3
			L10,3z"></path>
	</g>
</g>
<g>
	<path style="fill:#F5CE85;" d="M1.5,26.5v-18h8.651l3-2H28.5V26c0,0.276-0.224,0.5-0.5,0.5H1.5z"></path>
	<g>
		<path style="fill:#967A44;" d="M28,7v19H2V9h8h0.303l0.252-0.168L13.303,7H28 M29,6H13l-3,2H1v19h27c0.552,0,1-0.448,1-1V6L29,6z"></path>
	</g>
</g>
<g>
	<circle style="fill:#BAE0BD;" cx="23" cy="23" r="6.5"></circle>
	<g>
		<path style="fill:#5E9C76;" d="M23,17c3.308,0,6,2.692,6,6s-2.692,6-6,6s-6-2.692-6-6S19.692,17,23,17 M23,16
			c-3.866,0-7,3.134-7,7s3.134,7,7,7s7-3.134,7-7S26.866,16,23,16L23,16z"></path>
	</g>
</g>
<line style="fill:none;stroke:#FFFFFF;stroke-width:2;stroke-miterlimit:10;" x1="23" y1="27" x2="23" y2="19"></line>
<line style="fill:none;stroke:#FFFFFF;stroke-width:2;stroke-miterlimit:10;" x1="19" y1="23" x2="27" y2="23"></line>
</svg>