<svg version="1.1" id="Layer_1" xmlns="http://www.w3.org/2000/svg" xmlns:xlink="http://www.w3.org/1999/xlink" x="0px" y="0px" viewBox="0 0 30 30" style="enable-background:new 0 0 30 30;" xml:space="preserve">
<g>
	<path style="fill:#8BB7F0;" d="M19.567,15.5c-1.36,0-2.634-0.525-3.587-1.479c-0.954-0.954-1.479-2.228-1.479-3.587
		s0.525-2.633,1.479-3.587l3.866-3.866C20.799,2.025,22.073,1.5,23.433,1.5s2.634,0.525,3.587,1.479
		C27.975,3.934,28.5,5.208,28.5,6.567s-0.525,2.633-1.479,3.587l-3.866,3.866C22.201,14.975,20.927,15.5,19.567,15.5z M23.433,3.5
		c-0.825,0-1.597,0.317-2.173,0.894L17.394,8.26C16.817,8.836,16.5,9.608,16.5,10.433s0.317,1.597,0.894,2.173
		c0.576,0.576,1.348,0.894,2.173,0.894c0.825,0,1.597-0.317,2.173-0.894l3.866-3.866C26.183,8.164,26.5,7.392,26.5,6.567
		c0-0.826-0.317-1.598-0.894-2.173C25.031,3.817,24.259,3.5,23.433,3.5z"></path>
	<path style="fill:#4E7AB5;" d="M23.433,2c1.226,0,2.375,0.473,3.234,1.333C27.527,4.192,28,5.341,28,6.567
		s-0.473,2.375-1.333,3.234l-3.866,3.866C21.941,14.527,20.793,15,19.567,15c-1.226,0-2.375-0.473-3.234-1.333
		C15.473,12.808,15,11.659,15,10.433c0-1.226,0.473-2.375,1.333-3.234l3.866-3.866C21.059,2.473,22.207,2,23.433,2 M19.567,14
		c0.959,0,1.856-0.369,2.527-1.04l3.866-3.866C26.631,8.423,27,7.526,27,6.567s-0.369-1.856-1.04-2.527
		C25.289,3.369,24.392,3,23.433,3s-1.856,0.369-2.527,1.04L17.04,7.906C16.369,8.577,16,9.474,16,10.433
		c0,0.959,0.369,1.856,1.04,2.527C17.71,13.631,18.608,14,19.567,14 M23.433,1c-1.429,0-2.857,0.542-3.941,1.626l-3.866,3.866
		c-2.168,2.168-2.168,5.715,0,7.882C16.71,15.458,18.138,16,19.567,16c1.429,0,2.857-0.542,3.941-1.626l3.866-3.866
		c2.168-2.168,2.168-5.715,0-7.882C26.29,1.542,24.862,1,23.433,1L23.433,1z M19.567,13c-0.692,0-1.338-0.265-1.82-0.747
		C17.265,11.771,17,11.125,17,10.433c0-0.692,0.265-1.338,0.747-1.82l3.866-3.866C22.095,4.265,22.741,4,23.433,4
		c0.692,0,1.338,0.265,1.82,0.747C25.735,5.229,26,5.875,26,6.567c0,0.692-0.265,1.338-0.747,1.82l-3.866,3.866
		C20.905,12.735,20.259,13,19.567,13L19.567,13z"></path>
</g>
<g>
	<path style="fill:#8BB7F0;" d="M6.567,28.5c-1.36,0-2.634-0.525-3.587-1.479C2.025,26.066,1.5,24.792,1.5,23.433
		s0.525-2.633,1.479-3.587l3.866-3.866c0.954-0.954,2.228-1.479,3.587-1.479c1.359,0,2.634,0.525,3.588,1.479
		c0.954,0.954,1.479,2.228,1.479,3.587s-0.525,2.633-1.479,3.587l-3.867,3.866C9.201,27.975,7.927,28.5,6.567,28.5z M10.433,16.5
		c-0.825,0-1.597,0.317-2.173,0.894L4.394,21.26C3.817,21.836,3.5,22.608,3.5,23.433s0.317,1.597,0.894,2.173S5.742,26.5,6.567,26.5
		s1.597-0.317,2.173-0.894l3.866-3.866c0.576-0.576,0.894-1.348,0.894-2.173c0-0.826-0.317-1.598-0.894-2.173
		C12.031,16.817,11.259,16.5,10.433,16.5z"></path>
	<path style="fill:#4E7AB5;" d="M10.433,15c1.226,0,2.375,0.473,3.234,1.333C14.527,17.192,15,18.341,15,19.567
		s-0.473,2.375-1.333,3.234l-3.866,3.866C8.941,27.527,7.793,28,6.567,28c-1.226,0-2.375-0.473-3.234-1.333
		C2.473,25.808,2,24.659,2,23.433c0-1.226,0.473-2.375,1.333-3.234l3.866-3.866C8.059,15.473,9.207,15,10.433,15 M6.567,27
		c0.959,0,1.856-0.369,2.527-1.04l3.866-3.866c0.671-0.671,1.04-1.568,1.04-2.527s-0.369-1.856-1.04-2.527
		C12.29,16.369,11.392,16,10.433,16s-1.856,0.369-2.527,1.04L4.04,20.906C3.369,21.577,3,22.474,3,23.433
		c0,0.959,0.369,1.856,1.04,2.527C4.711,26.631,5.608,27,6.567,27 M10.433,14c-1.429,0-2.857,0.542-3.941,1.626l-3.866,3.866
		c-2.168,2.168-2.168,5.715,0,7.882C3.71,28.458,5.138,29,6.567,29c1.429,0,2.857-0.542,3.941-1.626l3.866-3.866
		c2.168-2.168,2.168-5.715,0-7.882C13.29,14.542,11.862,14,10.433,14L10.433,14z M6.567,26c-0.692,0-1.338-0.265-1.82-0.747
		C4.265,24.771,4,24.125,4,23.433c0-0.692,0.265-1.338,0.747-1.82l3.866-3.866C9.095,17.265,9.741,17,10.433,17
		c0.692,0,1.338,0.265,1.82,0.747C12.735,18.229,13,18.875,13,19.567c0,0.692-0.265,1.338-0.747,1.82l-3.866,3.866
		C7.905,25.735,7.259,26,6.567,26L6.567,26z"></path>
</g>
<g>
	<path style="fill:#8BB7F0;" d="M11,20c-0.267,0-0.518-0.104-0.707-0.293S10,19.267,10,19s0.104-0.518,0.293-0.707l8-8
		C18.482,10.104,18.733,10,19,10s0.518,0.104,0.707,0.293S20,10.733,20,11s-0.104,0.518-0.293,0.707l-8,8
		C11.518,19.896,11.267,20,11,20z"></path>
	<path style="fill:#4E7AB5;" d="M19,10.5c0.077,0,0.226,0.019,0.354,0.147C19.481,10.774,19.5,10.923,19.5,11
		c0,0.077-0.019,0.226-0.147,0.353l-8,8C11.226,19.481,11.077,19.5,11,19.5s-0.226-0.019-0.354-0.147
		C10.519,19.226,10.5,19.077,10.5,19s0.019-0.226,0.147-0.353l8-8C18.774,10.519,18.923,10.5,19,10.5 M19,9.5
		c-0.384,0-0.768,0.146-1.061,0.439l-8,8c-0.586,0.585-0.586,1.536,0,2.121C10.232,20.354,10.616,20.5,11,20.5
		s0.768-0.146,1.061-0.439l8-8c0.586-0.585,0.586-1.536,0-2.121C19.768,9.646,19.384,9.5,19,9.5L19,9.5z"></path>
</g>
<g>
	<circle style="fill:#BAE0BD;" cx="23" cy="23" r="6.5"></circle>
	<g>
		<path style="fill:#5E9C76;" d="M23,17c3.308,0,6,2.692,6,6s-2.692,6-6,6s-6-2.692-6-6S19.692,17,23,17 M23,16
			c-3.866,0-7,3.134-7,7s3.134,7,7,7s7-3.134,7-7S26.866,16,23,16L23,16z"></path>
	</g>
</g>
<line style="fill:none;stroke:#FFFFFF;stroke-width:2;stroke-miterlimit:10;" x1="23" y1="27" x2="23" y2="19"></line>
<line style="fill:none;stroke:#FFFFFF;stroke-width:2;stroke-miterlimit:10;" x1="19" y1="23" x2="27" y2="23"></line>
</svg>