<svg version="1.1" id="Layer_1" xmlns="http://www.w3.org/2000/svg" xmlns:xlink="http://www.w3.org/1999/xlink" x="0px" y="0px" viewBox="0 0 30 30" style="enable-background:new 0 0 30 30;" xml:space="preserve">
<g>
	<rect x="1.5" y="5.5" style="fill:#F2FAFF;" width="23" height="23"></rect>
	<g>
		<path style="fill:#788B9C;" d="M24,6v22H2V6H24 M25,5H1v24h24V5L25,5z"></path>
	</g>
</g>
<polygon style="fill:#F2FAFF;" points="25,7 23,7 23,14 25,12 "></polygon>
<polygon style="fill:#F2FAFF;" points="23,5 23,7 16,7 18,5 "></polygon>
<g>
	<polygon style="fill:#F5CE85;" points="10.413,16.304 12.216,14.501 15.736,17.567 13.714,19.589 7.951,22.05 	"></polygon>
	<path style="fill:#967A44;" d="M12.24,15.184l2.764,2.407l-1.575,1.575L8.902,21.1l1.933-4.511L12.24,15.184 M12.193,13.817
		l-2.202,2.202L7,23l6.999-2.989l2.469-2.469L12.193,13.817L12.193,13.817z"></path>
</g>
<g>
	<polygon style="fill:#36404D;" points="8.698,19.045 7.002,23.002 10.969,21.308 	"></polygon>
</g>
<g>
	<path style="fill:#F78F8F;" d="M22.969,3.737l1.556-1.556C24.965,1.742,25.55,1.5,26.171,1.5c0.622,0,1.207,0.242,1.646,0.682
		S28.5,3.207,28.5,3.828c0,0.622-0.242,1.207-0.682,1.646L26.262,7.03L22.969,3.737z"></path>
	<g>
		<path style="fill:#C74343;" d="M26.172,2c0.488,0,0.948,0.19,1.293,0.536C27.81,2.881,28,3.34,28,3.828s-0.19,0.948-0.536,1.293
			l-1.202,1.202l-2.586-2.586l1.202-1.202C25.224,2.19,25.683,2,26.172,2 M26.172,1c-0.724,0-1.448,0.276-2,0.828l-1.909,1.909l4,4
			l1.909-1.909c1.105-1.105,1.105-2.895,0-4C27.619,1.276,26.895,1,26.172,1L26.172,1z"></path>
	</g>
</g>
<g>
	<path style="fill:#FFEEA3;" d="M14.289,19.014c-0.04-0.067-0.087-0.134-0.142-0.199c-0.233-0.273-0.553-0.446-0.955-0.518
		c-0.18-0.846-0.85-1.288-1.464-1.441c-0.107-0.516-0.405-0.875-0.777-1.091L21.657,5.05l3.293,3.293L14.289,19.014z"></path>
	<g>
		<path style="fill:#BA9B48;" d="M21.658,5.757l2.586,2.586l-9.928,9.936c-0.177-0.151-0.411-0.296-0.717-0.394
			c-0.262-0.75-0.855-1.201-1.457-1.423c-0.099-0.293-0.251-0.54-0.439-0.742L21.658,5.757 M21.657,4.343L9.991,16.019
			c0,0,0.005,0,0.016,0c0.145,0,1.264,0.04,1.264,1.275c0,0,1.469,0.046,1.469,1.466c1.461,0,1.26,1.25,1.26,1.25L25.657,8.343
			L21.657,4.343L21.657,4.343z"></path>
	</g>
</g>
<g>
	
		<rect x="22.638" y="3.36" transform="matrix(0.7071 -0.7071 0.7071 0.7071 3.0982 18.857)" style="fill:#D9E7F5;" width="3.346" height="4.657"></rect>
	<g>
		<path style="fill:#788B9C;" d="M23.848,3.566l2.586,2.586l-1.659,1.659l-2.586-2.586L23.848,3.566 M23.848,2.152l-3.073,3.073l4,4
			l3.073-3.073L23.848,2.152L23.848,2.152z"></path>
	</g>
</g>
</svg>