<svg version="1.1" id="Layer_1" xmlns="http://www.w3.org/2000/svg" xmlns:xlink="http://www.w3.org/1999/xlink" x="0px" y="0px" viewBox="0 0 16 16" style="enable-background:new 0 0 16 16;" xml:space="preserve">
<g>
	<polygon style="fill:#B0C1D4;" points="3.67,4.662 2.034,4.117 0.63,1.777 1.777,0.63 4.117,2.034 4.662,3.67 10.293,9.3 
		9.3,10.293 	"></polygon>
	<g>
		<path style="fill:#66798F;" d="M1.855,1.259l1.846,1.108l0.45,1.349L4.225,3.94l0.167,0.167L9.586,9.3L9.3,9.586L4.107,4.392
			L3.94,4.225L3.716,4.151l-1.349-0.45L1.259,1.855L1.855,1.259 M1.7,0L0,1.7l1.7,2.833l1.7,0.567L9.3,11L11,9.3L5.099,3.399
			L4.533,1.7L1.7,0L1.7,0z"></path>
	</g>
</g>
<g>
	<g>
		<path style="fill:#F78F8F;" d="M13.457,15.5c-0.549,0-1.064-0.215-1.451-0.605L6.768,9.599l2.903-2.875l5.237,5.296
			c0.384,0.388,0.594,0.902,0.592,1.448c-0.003,0.545-0.218,1.057-0.605,1.44C14.509,15.29,13.999,15.5,13.457,15.5L13.457,15.5z"></path>
	</g>
	<g>
		<path style="fill:#C74343;" d="M9.667,7.431l4.886,4.941c0.29,0.293,0.449,0.681,0.446,1.093s-0.164,0.799-0.457,1.089
			C14.252,14.841,13.867,15,13.457,15c-0.415,0-0.804-0.162-1.096-0.457L7.475,9.602L9.667,7.431 M9.675,6.017L6.061,9.595
			l5.59,5.652C12.148,15.749,12.802,16,13.457,16c0.647,0,1.293-0.245,1.789-0.736c0.998-0.988,1.006-2.598,0.018-3.596L9.675,6.017
			L9.675,6.017z"></path>
	</g>
</g>
<g>
	<path style="fill:#DCD5F2;" d="M2.617,15.5c-0.569,0-1.104-0.223-1.504-0.627c-0.398-0.402-0.616-0.935-0.613-1.501
		c0.003-0.565,0.226-1.096,0.627-1.493l6.877-6.816l2.979,3.01l-6.876,6.814C3.707,15.282,3.179,15.5,2.617,15.5L2.617,15.5z"></path>
	<path style="fill:#8B75A1;" d="M8,5.771l2.275,2.298l-6.521,6.464C3.45,14.834,3.046,15,2.617,15c-0.435,0-0.843-0.17-1.149-0.479
		c-0.627-0.634-0.622-1.659,0.012-2.287L8,5.771 M8.007,4.356l-7.231,7.168c-1.027,1.017-1.035,2.674-0.018,3.701
		C1.269,15.741,1.943,16,2.617,16c0.665,0,1.331-0.252,1.841-0.757l7.231-7.168L8.007,4.356L8.007,4.356z"></path>
</g>
<line style="fill:none;stroke:#C74343;stroke-miterlimit:10;" x1="13.664" y1="13.664" x2="10.571" y2="10.571"></line>
<g>
	<path style="fill:#DCD5F2;" d="M11.775,9.513c-1.297,0-2.634-0.6-3.668-1.644C6.259,6.002,5.959,3.291,7.439,1.825
		C8.24,1.032,9.642,0.5,10.926,0.5c0.6,0,1.137,0.111,1.596,0.331l0.262,0.264L9.879,4L12,6.121l2.894-2.894l0.289,0.292
		c0.741,1.591,0.074,3.976-1.038,5.077C13.539,9.196,12.72,9.513,11.775,9.513L11.775,9.513z"></path>
	<path style="fill:#8B75A1;" d="M10.925,1c0.391,0,0.759,0.056,1.083,0.163l-2.13,2.13L9.172,4l0.707,0.707l1.414,1.414L12,6.828
		l0.707-0.707l2.127-2.127c0.464,1.384-0.128,3.344-1.042,4.248c-0.644,0.637-1.452,0.771-2.017,0.771
		c-1.164,0-2.372-0.545-3.313-1.496C6.808,5.846,6.507,3.452,7.791,2.18C8.493,1.485,9.782,1,10.925,1 M10.925,0
		C9.476,0,7.961,0.606,7.088,1.47C5.409,3.132,5.706,6.155,7.752,8.221c1.167,1.179,2.652,1.792,4.024,1.792
		c1.032,0,2-0.347,2.721-1.061c1.275-1.263,2.006-3.909,1.1-5.726l-0.701-0.708L12,5.414L10.586,4l2.903-2.903l-0.67-0.677
		C12.248,0.129,11.594,0,10.925,0L10.925,0z"></path>
</g>
</svg>