<svg version="1.1" id="Layer_1" xmlns="http://www.w3.org/2000/svg" xmlns:xlink="http://www.w3.org/1999/xlink" x="0px" y="0px" viewBox="0 0 30 30" style="enable-background:new 0 0 30 30;" xml:space="preserve">
<g>
	<polygon style="fill:#DBB065;" points="1.5,26.5 1.5,3.5 9.793,3.5 12.793,6.5 26.5,6.5 26.5,26.5 	"></polygon>
	<g>
		<path style="fill:#967A44;" d="M9.586,4l2.707,2.707L12.586,7H13h13v19H2V4H9.586 M10,3H1v24h26V6H13L10,3L10,3z"></path>
	</g>
</g>
<g>
	<rect x="4.5" y="6.5" style="fill:#FFFFFF;" width="22" height="13"></rect>
	<path style="fill:#788B9C;" d="M26,7v12H5V7H26 M27,6H4v14h23V6L27,6z"></path>
</g>
<g>
	<polygon style="fill:#F5CE85;" points="1.61,26.5 4.41,12.5 12.151,12.5 15.151,10.5 28.437,10.5 26.555,26.5 	"></polygon>
	<g>
		<path style="fill:#967A44;" d="M27.875,11l-1.765,15H2.22l2.6-13H12h0.303l0.252-0.168L15.303,11H27.875 M29,10H15l-3,2H4L1,27h26
			L29,10L29,10z"></path>
	</g>
</g>
</svg>