<svg id="Слой_1" data-name="Слой 1" xmlns="http://www.w3.org/2000/svg" viewBox="0 0 16 16"><title>Monitor</title><rect x="6.5" y="11.5" width="3" height="3" fill="#b0c1d4"></rect><path d="M9,12v2H7V12H9m1-1H6v4h4V11Z" fill="#66798f"></path><rect x="0.5" y="1.5" width="15" height="11" fill="#c2e8ff"></rect><path d="M15,2V12H1V2H15m1-1H0V13H16V1Z" fill="#66798f"></path><rect y="11" width="16" height="2" fill="#66798f"></rect><path d="M4.94,14h6.13a1,1,0,0,1,1,1v0a0,0,0,0,1,0,0H3.94a0,0,0,0,1,0,0v0a1,1,0,0,1,1-1Z" fill="#66798f"></path><rect x="13" y="11" width="1" height="1" fill="#ffeea3"></rect></svg>