<svg version="1.1" id="Layer_1" xmlns="http://www.w3.org/2000/svg" xmlns:xlink="http://www.w3.org/1999/xlink" x="0px" y="0px" viewBox="0 0 30 30" style="enable-background:new 0 0 30 30;" xml:space="preserve">
<g>
	<polygon style="fill:#DCD5F2;" points="2.5,27.5 2.5,2.5 21.793,2.5 27.5,8.207 27.5,27.5 	"></polygon>
	<path style="fill:#8B75A1;" d="M21.586,3L27,8.414V27H3V3H21.586 M22,2H2v26h26V8L22,2L22,2z"></path>
</g>
<g>
	<path style="fill:#FFFFFF;" d="M5.5,27.5V17c0-0.827,0.673-1.5,1.5-1.5h16c0.827,0,1.5,0.673,1.5,1.5v10.5H5.5z"></path>
	<path style="fill:#788B9C;" d="M23,16c0.551,0,1,0.449,1,1v10H6V17c0-0.551,0.449-1,1-1H23 M23,15H7c-1.105,0-2,0.895-2,2v11h20V17
		C25,15.895,24.105,15,23,15L23,15z"></path>
</g>
<g>
	<path style="fill:#8B75A1;" d="M19,2H8C7.448,2,7,2.448,7,3v7c0,0.552,0.448,1,1,1h11c0.552,0,1-0.448,1-1V3
		C20,2.448,19.552,2,19,2z"></path>
</g>
<g>
	<path style="fill:#C8D1DB;" d="M10,10.5c-0.276,0-0.5-0.225-0.5-0.5V3c0-0.275,0.224-0.5,0.5-0.5h11c0.276,0,0.5,0.225,0.5,0.5v7
		c0,0.275-0.224,0.5-0.5,0.5H10z"></path>
	<g>
		<path style="fill:#66798F;" d="M21,3v7H10V3H21 M21,2H10C9.448,2,9,2.448,9,3v7c0,0.552,0.448,1,1,1h11c0.552,0,1-0.448,1-1V3
			C22,2.448,21.552,2,21,2L21,2z"></path>
	</g>
</g>
<rect x="8" y="21" style="fill:#C2E8FF;" width="14" height="1"></rect>
<rect x="8" y="18" style="fill:#C2E8FF;" width="14" height="1"></rect>
<rect x="8" y="24" style="fill:#C2E8FF;" width="14" height="1"></rect>
<rect x="17" y="4" style="fill:#66798F;" width="2" height="5"></rect>
</svg>